<?xml version="1.0" encoding="utf-8"?>
<!-- Svg Vector Icons : http://www.onlinewebfonts.com/icon -->
<!DOCTYPE svg PUBLIC "-//W3C//DTD SVG 1.1//EN" "http://www.w3.org/Graphics/SVG/1.1/DTD/svg11.dtd">
<svg version="1.1" xmlns="http://www.w3.org/2000/svg" x="0px" y="0px" viewBox="0 0 1000 1000" enable-background="new 0 0 1000 1000" xml:space="preserve">
<g><path class="icon" d="M688.7,500l-121.9,0V366.4c0-12.3-10-22.3-22.3-22.3h-89.1c-12.3,0-22.3,10-22.3,22.3v133.8l-122.9,0.6c-4.3,0-7.8,2.5-9.3,6c0,0.1-0.1,0.1-0.1,0.2c-0.3,0.7-0.4,1.4-0.5,2.1c-0.1,0.7-0.3,1.3-0.3,2c0,0.2-0.1,0.3-0.1,0.4c0,0.4,0.3,0.8,0.3,1.2c0.2,0.9,0.4,1.7,0.8,2.6c0.2,0.4,0.4,0.8,0.7,1.1c0.4,0.6,0.6,1.3,1.1,1.9L487,724c0.4,0.5,0.9,0.7,1.3,1.1c0.2,0.2,0.4,0.6,0.6,0.8c0.2,0.2,0.6,0.2,0.8,0.4c0.7,0.5,1.5,0.8,2.3,1.1c0.3,0.1,0.5,0.2,0.8,0.3c3.2,0.9,6.6,0.7,9.1-1.4c0.6-0.5,0.9-1.2,1.4-1.7c0.3-0.3,0.7-0.4,1-0.7l191.6-205.5c0.6-0.6,0.9-1.4,1.3-2.1c0.2-0.3,0.4-0.6,0.6-0.9c0.4-0.8,0.6-1.7,0.8-2.6c0.1-0.4,0.3-0.7,0.3-1.1v-0.7c0-0.1,0-0.2,0-0.4C699.3,504.7,694.7,500,688.7,500z M455.5,321.8h89.1c12.3,0,22.3-10,22.3-22.3v-22.3c0-12.3-10-22.3-22.3-22.3h-89.1c-12.3,0-22.3,10-22.3,22.3v22.3C433.2,311.8,443.1,321.8,455.5,321.8z M500,10C229.4,10,10,229.4,10,500s219.4,490,490,490s490-219.4,490-490S770.6,10,500,10z M500,900.9C278.6,900.9,99.1,721.4,99.1,500C99.1,278.6,278.6,99.1,500,99.1S900.9,278.6,900.9,500C900.9,721.4,721.4,900.9,500,900.9z"/></g>
</svg>