<?xml version="1.0" encoding="utf-8"?>
<!-- Svg Vector Icons : http://www.onlinewebfonts.com/icon -->
<!DOCTYPE svg PUBLIC "-//W3C//DTD SVG 1.1//EN" "http://www.w3.org/Graphics/SVG/1.1/DTD/svg11.dtd">
<svg version="1.1" xmlns="http://www.w3.org/2000/svg" xmlns:xlink="http://www.w3.org/1999/xlink" x="0px" y="0px" viewBox="0 0 1000 1000" enable-background="new 0 0 1000 1000" xml:space="preserve">
<metadata> Svg Vector Icons : http://www.onlinewebfonts.com/icon </metadata>
<g><path d="M990,377.5c0,9.5-3.5,17.7-10.4,24.6l-280,280c-6.9,6.9-15.1,10.4-24.6,10.4c-9.5,0-17.7-3.5-24.6-10.4S640,667,640,657.5v-140H517.5c-35.7,0-67.7,1.1-96,3.3c-28.3,2.2-56.3,6.1-84.2,11.8c-27.9,5.7-52.1,13.4-72.7,23.2s-39.8,22.5-57.7,38s-32.4,33.9-43.8,55.2c-11.3,21.3-20.1,46.6-26.5,75.7c-6.4,29.2-9.6,62.2-9.6,99c0,20.1,0.9,42.5,2.7,67.3c0,2.2,0.5,6.5,1.4,12.9s1.4,11.2,1.4,14.5c0,5.5-1.5,10-4.6,13.7c-3.1,3.6-7.4,5.5-12.9,5.5c-5.8,0-10.9-3.1-15.3-9.3c-2.6-3.3-4.9-7.3-7.1-12c-2.2-4.7-4.6-10.2-7.4-16.4c-2.7-6.2-4.6-10.6-5.7-13.1C33.2,782.7,10,700.5,10,640c0-72.6,9.7-133.3,29-182.1C98,311,257.6,237.5,517.5,237.5H640v-140c0-9.5,3.5-17.7,10.4-24.6c6.9-6.9,15.1-10.4,24.6-10.4c9.5,0,17.7,3.5,24.6,10.4l280,280C986.5,359.8,990,368,990,377.5L990,377.5z"/></g>
</svg>