<?xml version="1.0" encoding="utf-8"?>
<!-- Svg Vector Icons : http://www.onlinewebfonts.com/icon -->
<!DOCTYPE svg PUBLIC "-//W3C//DTD SVG 1.1//EN" "http://www.w3.org/Graphics/SVG/1.1/DTD/svg11.dtd">
<svg version="1.1" xmlns="http://www.w3.org/2000/svg" xmlns:xlink="http://www.w3.org/1999/xlink" x="0px" y="0px" viewBox="0 0 1000 1000" enable-background="new 0 0 1000 1000" xml:space="preserve">
<metadata> Svg Vector Icons : http://www.onlinewebfonts.com/icon </metadata>
<g><g transform="translate(0.000000,491.000000) scale(0.100000,-0.100000)"><path class="icon" fill="#d5d5d5" stroke="#f7f7f7" stroke-width="300" d="M4000,4742.1l-67.9-67.9V2826V977.8H2083.9H235.7L167.9,910L100,842.1V-68c0-1013.9,0-1005.9,129.7-1061.8c57.9-24,361.3-27.9,1886.1-27.9h1816.3v-1826.3c0-1620.7,4-1834.3,31.9-1888.1C4022-4988,4044-4990,5002-4990c750.5,0,880.2,4,936.1,31.9c135.7,63.9,129.7-33.9,129.7,1982v1818.3h1818.3c2015.9,0,1918.1-6,1982,129.7C9896-972.2,9900-842.5,9900-92c0,958-2,980-117.8,1037.9c-53.9,27.9-267.5,31.9-1888.1,31.9H6067.8v1816.3c0,1524.9-4,1828.3-28,1886.2C5984,4810,5992,4810,4978,4810h-910.1L4000,4742.1z"/></g></g>
</svg>