<?xml version="1.0" encoding="utf-8"?>
<!-- Svg Vector Icons : http://www.onlinewebfonts.com/icon -->
<!DOCTYPE svg PUBLIC "-//W3C//DTD SVG 1.1//EN" "http://www.w3.org/Graphics/SVG/1.1/DTD/svg11.dtd">
<svg version="1.1" xmlns="http://www.w3.org/2000/svg" xmlns:xlink="http://www.w3.org/1999/xlink" x="0px" y="0px" viewBox="0 0 1000 1000" enable-background="new 0 0 1000 1000" xml:space="preserve">
<metadata> Svg Vector Icons : http://www.onlinewebfonts.com/icon </metadata>
<g><path d="M500,10C230.5,10,10,230.5,10,500c0,269.5,220.5,490,490,490c269.5,0,490-220.5,490-490C990,230.5,769.5,10,500,10z M682.4,105.3c-2.7,2.7-2.7,2.7-5.4,2.7l-8.2-2.7h-5.4c-2.7,0-2.7,0-5.4,0c0-5.4-2.7-8.2-5.4-13.6C663.3,97.1,674.2,99.8,682.4,105.3L682.4,105.3z M442.8,67.2c-19.1,27.2-13.6,49-8.2,62.6c5.4,16.3,16.3,27.2,29.9,32.7c-8.2,8.2-13.6,19.1-13.6,32.7l-13.6,16.3c-5.4,5.4-8.2,10.9-10.9,19.1c-29.9,8.2-54.4,29.9-68.1,62.6c-2.7,0-5.4,2.7-8.2,5.4c-10.9,2.7-21.8,8.2-32.7,21.8c-10.9-5.4-24.5-10.9-38.1-10.9c-27.2,0-57.2,13.6-92.6,40.8l-2.7,2.7l-2.7,2.7c-5.4-10.9-16.3-19.1-24.5-24.5c-8.2-5.4-16.3-8.2-21.8-10.9l-13.6-29.9C181.5,173.3,301.3,86.2,442.8,67.2L442.8,67.2z M500,932.8c-10.9,0-19.1,0-29.9-2.7c-5.4-13.6-29.9-65.3-13.6-92.6c0,0,76.2-40.8,68.1-89.8c0,0,78.9-43.6,46.3-73.5c0,0,2.7-29.9,19.1-32.7c0,0,29.9-27.2-10.9-46.3c0,0-59.9-5.4-73.5-29.9c0,0-21.8-38.1-59.9-40.8c0,0-40.8-59.9-103.4-21.8c0,0-46.3,10.9-70.8-2.7c8.2,10.9,21.8,19.1,32.7,21.8c0,0,43.6,10.9,10.9,54.4c0,0-43.6,54.4,57.2,106.2c0,0,21.8,16.3,10.9,68.1c0,0-24.5,117.1,24.5,155.2c10.9,8.2,19.1,13.6,27.2,16.3C225.1,897.4,61.7,717.8,61.7,500c0-49,8.2-95.3,24.5-138.8c8.2,21.8,16.3,5.4,38.1,19.1c27.2,16.3-19.1,29.9,13.6,40.8c32.7,10.9,19.1,2.7,29.9,32.7c10.9,29.9,51.7,24.5,51.7,24.5c46.3-16.3-2.7,19.1,51.7,24.5V500l0,0c57.2,0-2.7-32.7-2.7-32.7c32.7-32.7-10.9-21.8-10.9-21.8c-13.6,10.9-32.7,0-32.7,0c-38.1-24.5-8.2-54.4-8.2-54.4c70.8-54.4,81.7-13.6,81.7-13.6c0,32.7,19.1,32.7,19.1,32.7c29.9,0,32.7-32.7,32.7-32.7c-2.7-27.2,19.1-27.2,19.1-27.2c35.4-19.1,40.8-35.4,40.8-35.4c13.6-40.8,46.3-29.9,46.3-29.9c46.3-8.2,21.8-27.2,21.8-27.2c-5.4-29.9,21.8,0,21.8,0c21.8,24.5,29.9,0,29.9,0c24.5-32.7-27.2-46.3-27.2-46.3c-2.7-29.9,24.5-8.2,21.8-57.2c0,0,2.7-27.2-24.5-35.4c0,0-29.9-2.7-5.4-27.2c0,0,16.3-19.1,29.9,5.4c0,0,19.1,19.1,54.4,2.7c0,0,51.7,13.6,27.2,38.1c0,0-19.1,51.7,24.5,38.1c0,0,16.3-16.3,38.1-16.3c0,0,40.8,10.9,65.3-27.2l2.7-2.7c29.9,19.1,54.4,38.1,78.9,62.6c-35.4-5.4-35.4,19.1-35.4,19.1C745,244.1,794,244.1,794,244.1c32.7-5.4,21.8,24.5,21.8,24.5c19.1,8.2-5.4,21.8-5.4,21.8c-62.6,29.9-8.2,46.3-8.2,46.3c19.1,32.7-35.4,29.9-29.9,51.7c0,0-21.8,38.1-46.3,40.8c0,0-27.2,49,5.4,81.7c0,0,24.5,76.2,95.3,38.1c0,0,46.3-27.2,51.7,21.8c0,0,8.2,51.7,46.3,51.7C867.5,802.2,701.4,932.8,500,932.8L500,932.8z M410.2,647l-10.9-5.4c-24.5-13.6-35.4-24.5-35.4-27.2c16.3-24.5,21.8-43.6,21.8-62.6h2.7c5.4,0,13.6,8.2,16.3,10.9l13.6,19.1l24.5,2.7c5.4,0,13.6,10.9,16.3,13.6c13.6,24.5,40.8,38.1,65.3,46.3c-2.7,8.2-5.4,16.3-5.4,27.2l-2.7,19.1c-5.4,5.4-10.9,8.2-16.3,10.9l-32.7,19.1l5.4,35.4c-2.7,8.2-19.1,24.5-35.4,32.7c0-8.2,2.7-16.3,2.7-21.8C459.2,687.8,418.3,652.4,410.2,647L410.2,647z M930.1,562.6c-8.2-57.2-49-76.2-81.7-76.2c-24.5,0-43.6,10.9-51.7,16.3c-8.2,2.7-10.9,2.7-10.9,2.7s-5.4-8.2-5.4-10.9l-5.4-13.6l-10.9-10.9c0,0,0,0,0-2.7c27.2-16.3,43.6-43.6,49-51.7l2.7-5.4c43.6-29.9,40.8-65.3,32.7-87.1c13.6-13.6,21.8-32.7,21.8-51.7c43.6,70.8,65.3,147,65.3,228.7c0,21.8-2.7,46.3-5.4,68.1C930.1,565.3,930.1,562.6,930.1,562.6L930.1,562.6z"/></g>
</svg>